<?xml version="1.0" encoding="UTF-8" standalone="no"?>
<!DOCTYPE svg PUBLIC "-//W3C//DTD SVG 1.1//EN"
 "http://www.w3.org/Graphics/SVG/1.1/DTD/svg11.dtd">
<!-- Generated by graphviz version 2.43.0 (0)
 -->
<!-- Title: MicroservicesArchitecture Pages: 1 -->
<svg width="1066pt" height="1014pt"
 viewBox="0.00 0.00 1066.00 1013.87" xmlns="http://www.w3.org/2000/svg" xmlns:xlink="http://www.w3.org/1999/xlink">
<g id="graph0" class="graph" transform="scale(1 1) rotate(0) translate(4 1009.87)">
<title>MicroservicesArchitecture</title>
<polygon fill="white" stroke="transparent" points="-4,4 -4,-1009.87 1062,-1009.87 1062,4 -4,4"/>
<text text-anchor="middle" x="529" y="-990.67" font-family="Times,serif" font-size="14.00">PagoPA Terraform implementation of infrastructure for microservices on AWS</text>
<text text-anchor="middle" x="529" y="-975.67" font-family="Times,serif" font-size="14.00">Mohammadreza Sarayloo (github.com/signorrayan)</text>
<g id="clust1" class="cluster">
<title>cluster_Internet</title>
<path fill="none" stroke="black" d="M285,-820.87C285,-820.87 471,-820.87 471,-820.87 477,-820.87 483,-826.87 483,-832.87 483,-832.87 483,-947.87 483,-947.87 483,-953.87 477,-959.87 471,-959.87 471,-959.87 285,-959.87 285,-959.87 279,-959.87 273,-953.87 273,-947.87 273,-947.87 273,-832.87 273,-832.87 273,-826.87 279,-820.87 285,-820.87"/>
</g>
<g id="clust2" class="cluster">
<title>cluster_VPC</title>
<path fill="none" stroke="lightgrey" d="M20,-79C20,-79 742,-79 742,-79 748,-79 754,-85 754,-91 754,-91 754,-775.87 754,-775.87 754,-781.87 748,-787.87 742,-787.87 742,-787.87 20,-787.87 20,-787.87 14,-787.87 8,-781.87 8,-775.87 8,-775.87 8,-91 8,-91 8,-85 14,-79 20,-79"/>
<text text-anchor="middle" x="381" y="-772.67" font-family="Times,serif" font-size="14.00">Virtual Private Cloud (VPC)</text>
</g>
<g id="clust3" class="cluster">
<title>cluster_SecurityGroups</title>
<path fill="none" stroke="lightgrey" d="M28,-87C28,-87 734,-87 734,-87 740,-87 746,-93 746,-99 746,-99 746,-744.87 746,-744.87 746,-750.87 740,-756.87 734,-756.87 734,-756.87 28,-756.87 28,-756.87 22,-756.87 16,-750.87 16,-744.87 16,-744.87 16,-99 16,-99 16,-93 22,-87 28,-87"/>
<text text-anchor="middle" x="381" y="-741.67" font-family="Times,serif" font-size="14.00"> &#160;&#160;Security Group &#160;&#160;</text>
</g>
<g id="clust4" class="cluster">
<title>cluster_Subnets</title>
<path fill="none" stroke="lightgrey" d="M338,-650.87C338,-650.87 419,-650.87 419,-650.87 425,-650.87 431,-656.87 431,-662.87 431,-662.87 431,-713.87 431,-713.87 431,-719.87 425,-725.87 419,-725.87 419,-725.87 338,-725.87 338,-725.87 332,-725.87 326,-719.87 326,-713.87 326,-713.87 326,-662.87 326,-662.87 326,-656.87 332,-650.87 338,-650.87"/>
<text text-anchor="middle" x="378.5" y="-710.67" font-family="Times,serif" font-size="14.00"> Public Subnets </text>
</g>
<g id="clust5" class="cluster">
<title>cluster_PrivateSubnets</title>
<path fill="none" stroke="lightgrey" d="M36,-362.87C36,-362.87 726,-362.87 726,-362.87 732,-362.87 738,-368.87 738,-374.87 738,-374.87 738,-503.87 738,-503.87 738,-509.87 732,-515.87 726,-515.87 726,-515.87 36,-515.87 36,-515.87 30,-515.87 24,-509.87 24,-503.87 24,-503.87 24,-374.87 24,-374.87 24,-368.87 30,-362.87 36,-362.87"/>
<text text-anchor="middle" x="381" y="-500.67" font-family="Times,serif" font-size="14.00">Private Subnets</text>
</g>
<g id="clust6" class="cluster">
<title>cluster_Services</title>
<path fill="none" stroke="lightgrey" d="M44,-370.87C44,-370.87 718,-370.87 718,-370.87 724,-370.87 730,-376.87 730,-382.87 730,-382.87 730,-472.87 730,-472.87 730,-478.87 724,-484.87 718,-484.87 718,-484.87 44,-484.87 44,-484.87 38,-484.87 32,-478.87 32,-472.87 32,-472.87 32,-382.87 32,-382.87 32,-376.87 38,-370.87 44,-370.87"/>
<text text-anchor="middle" x="381" y="-469.67" font-family="Times,serif" font-size="14.00">ECS Services</text>
</g>
<g id="clust7" class="cluster">
<title>cluster_fargate1</title>
<path fill="none" stroke="lightgrey" d="M52,-378.87C52,-378.87 164,-378.87 164,-378.87 170,-378.87 176,-384.87 176,-390.87 176,-390.87 176,-441.87 176,-441.87 176,-447.87 170,-453.87 164,-453.87 164,-453.87 52,-453.87 52,-453.87 46,-453.87 40,-447.87 40,-441.87 40,-441.87 40,-390.87 40,-390.87 40,-384.87 46,-378.87 52,-378.87"/>
<text text-anchor="middle" x="108" y="-438.67" font-family="Times,serif" font-size="14.00">FARGATE</text>
</g>
<g id="clust8" class="cluster">
<title>cluster_fargate2</title>
<path fill="none" stroke="lightgrey" d="M196,-378.87C196,-378.87 362,-378.87 362,-378.87 368,-378.87 374,-384.87 374,-390.87 374,-390.87 374,-441.87 374,-441.87 374,-447.87 368,-453.87 362,-453.87 362,-453.87 196,-453.87 196,-453.87 190,-453.87 184,-447.87 184,-441.87 184,-441.87 184,-390.87 184,-390.87 184,-384.87 190,-378.87 196,-378.87"/>
<text text-anchor="middle" x="279" y="-438.67" font-family="Times,serif" font-size="14.00">FARGATE</text>
</g>
<g id="clust9" class="cluster">
<title>cluster_fargate3</title>
<path fill="none" stroke="lightgrey" d="M394,-378.87C394,-378.87 560,-378.87 560,-378.87 566,-378.87 572,-384.87 572,-390.87 572,-390.87 572,-441.87 572,-441.87 572,-447.87 566,-453.87 560,-453.87 560,-453.87 394,-453.87 394,-453.87 388,-453.87 382,-447.87 382,-441.87 382,-441.87 382,-390.87 382,-390.87 382,-384.87 388,-378.87 394,-378.87"/>
<text text-anchor="middle" x="477" y="-438.67" font-family="Times,serif" font-size="14.00">FARGATE</text>
</g>
<g id="clust10" class="cluster">
<title>cluster_fargate4</title>
<path fill="none" stroke="lightgrey" d="M592,-378.87C592,-378.87 710,-378.87 710,-378.87 716,-378.87 722,-384.87 722,-390.87 722,-390.87 722,-441.87 722,-441.87 722,-447.87 716,-453.87 710,-453.87 710,-453.87 592,-453.87 592,-453.87 586,-453.87 580,-447.87 580,-441.87 580,-441.87 580,-390.87 580,-390.87 580,-384.87 586,-378.87 592,-378.87"/>
<text text-anchor="middle" x="651" y="-438.67" font-family="Times,serif" font-size="14.00">FARGATE</text>
</g>
<g id="clust11" class="cluster">
<title>cluster_CloudWatch</title>
<path fill="magenta" stroke="magenta" d="M774,-270.87C774,-270.87 916,-270.87 916,-270.87 922,-270.87 928,-276.87 928,-282.87 928,-282.87 928,-333.87 928,-333.87 928,-339.87 922,-345.87 916,-345.87 916,-345.87 774,-345.87 774,-345.87 768,-345.87 762,-339.87 762,-333.87 762,-333.87 762,-282.87 762,-282.87 762,-276.87 768,-270.87 774,-270.87"/>
<text text-anchor="middle" x="845" y="-330.67" font-family="Times,serif" font-size="14.00">Amazon CloudWatch</text>
</g>
<g id="clust12" class="cluster">
<title>cluster_S3</title>
<path fill="green" stroke="green" d="M948,-270.87C948,-270.87 1038,-270.87 1038,-270.87 1044,-270.87 1050,-276.87 1050,-282.87 1050,-282.87 1050,-333.87 1050,-333.87 1050,-339.87 1044,-345.87 1038,-345.87 1038,-345.87 948,-345.87 948,-345.87 942,-345.87 936,-339.87 936,-333.87 936,-333.87 936,-282.87 936,-282.87 936,-276.87 942,-270.87 948,-270.87"/>
<text text-anchor="middle" x="993" y="-330.67" font-family="Times,serif" font-size="14.00">S3 Bucket</text>
</g>
<g id="clust13" class="cluster">
<title>cluster_X</title>
<path fill="none" stroke="black" d="M301,-8C301,-8 353,-8 353,-8 359,-8 365,-14 365,-20 365,-20 365,-48 365,-48 365,-54 359,-60 353,-60 353,-60 301,-60 301,-60 295,-60 289,-54 289,-48 289,-48 289,-20 289,-20 289,-14 295,-8 301,-8"/>
</g>
<!-- Internet -->
<g id="node1" class="node">
<title>Internet</title>
<text text-anchor="middle" x="445" y="-930.17" font-family="Times,serif" font-size="14.00">Internet</text>
</g>
<!-- User -->
<g id="node2" class="node">
<title>User</title>
<path fill="lightblue" stroke="lightblue" d="M385,-951.87C385,-951.87 355,-951.87 355,-951.87 349,-951.87 343,-945.87 343,-939.87 343,-939.87 343,-927.87 343,-927.87 343,-921.87 349,-915.87 355,-915.87 355,-915.87 385,-915.87 385,-915.87 391,-915.87 397,-921.87 397,-927.87 397,-927.87 397,-939.87 397,-939.87 397,-945.87 391,-951.87 385,-951.87"/>
<text text-anchor="middle" x="370" y="-930.17" font-family="Times,serif" font-size="14.00">Users</text>
</g>
<!-- DNS_Resolution -->
<g id="node3" class="node">
<title>DNS_Resolution</title>
<path fill="lightgrey" stroke="black" d="M366.2,-862.69C366.2,-862.69 292.44,-849.05 292.44,-849.05 286.54,-847.96 286.54,-845.78 292.44,-844.69 292.44,-844.69 366.2,-831.05 366.2,-831.05 372.1,-829.96 383.9,-829.96 389.8,-831.05 389.8,-831.05 463.56,-844.69 463.56,-844.69 469.46,-845.78 469.46,-847.96 463.56,-849.05 463.56,-849.05 389.8,-862.69 389.8,-862.69 383.9,-863.78 372.1,-863.78 366.2,-862.69"/>
<text text-anchor="middle" x="378" y="-843.17" font-family="Times,serif" font-size="14.00">DNS Resolution</text>
</g>
<!-- User&#45;&gt;DNS_Resolution -->
<g id="edge1" class="edge">
<title>User&#45;&gt;DNS_Resolution</title>
<path fill="none" stroke="black" d="M371.62,-915.67C372.72,-903.96 374.2,-888.21 375.46,-874.84"/>
<polygon fill="black" stroke="black" points="378.96,-875.04 376.41,-864.76 371.99,-874.38 378.96,-875.04"/>
<text text-anchor="middle" x="396" y="-886.67" font-family="Times,serif" font-size="14.00">Request</text>
</g>
<!-- ELB -->
<g id="node4" class="node">
<title>ELB</title>
<ellipse fill="orange" stroke="orange" cx="378" cy="-676.87" rx="27.1" ry="18"/>
<text text-anchor="middle" x="378" y="-673.17" font-family="Times,serif" font-size="14.00" fill="white">ELB</text>
</g>
<!-- DNS_Resolution&#45;&gt;ELB -->
<g id="edge2" class="edge">
<title>DNS_Resolution&#45;&gt;ELB</title>
<path fill="none" stroke="black" d="M378,-828.84C378,-799.78 378,-740.39 378,-705.39"/>
<polygon fill="black" stroke="black" points="381.5,-704.95 378,-694.95 374.5,-704.95 381.5,-704.95"/>
<text text-anchor="middle" x="400" y="-799.67" font-family="Times,serif" font-size="14.00">Resolve</text>
</g>
<!-- ECS -->
<g id="node5" class="node">
<title>ECS</title>
<ellipse fill="darkorange" stroke="darkorange" cx="378" cy="-574.87" rx="54.69" ry="18"/>
<text text-anchor="middle" x="378" y="-571.17" font-family="Times,serif" font-size="14.00" fill="white">ECS Cluster</text>
</g>
<!-- ELB&#45;&gt;ECS -->
<g id="edge3" class="edge">
<title>ELB&#45;&gt;ECS</title>
<path fill="none" stroke="black" d="M378,-658.45C378,-643.25 378,-620.94 378,-603.33"/>
<polygon fill="black" stroke="black" points="381.5,-603.09 378,-593.09 374.5,-603.09 381.5,-603.09"/>
<text text-anchor="middle" x="446" y="-629.67" font-family="Times,serif" font-size="14.00">Allow traffic from Users</text>
<text text-anchor="middle" x="446" y="-614.67" font-family="Times,serif" font-size="14.00"> on ports 80/8000</text>
</g>
<!-- FastAPI -->
<g id="node6" class="node">
<title>FastAPI</title>
<path fill="darkorange" stroke="darkorange" d="M156,-422.87C156,-422.87 60,-422.87 60,-422.87 54,-422.87 48,-416.87 48,-410.87 48,-410.87 48,-398.87 48,-398.87 48,-392.87 54,-386.87 60,-386.87 60,-386.87 156,-386.87 156,-386.87 162,-386.87 168,-392.87 168,-398.87 168,-398.87 168,-410.87 168,-410.87 168,-416.87 162,-422.87 156,-422.87"/>
<text text-anchor="middle" x="108" y="-401.17" font-family="Times,serif" font-size="14.00"> &#160;FastAPI Service &#160;</text>
</g>
<!-- ECS&#45;&gt;FastAPI -->
<g id="edge7" class="edge">
<title>ECS&#45;&gt;FastAPI</title>
<path fill="none" stroke="black" d="M325.09,-569.88C281.78,-564.14 221.18,-550.11 180,-515.87 152.42,-492.94 131.57,-456.71 119.58,-432.15"/>
<polygon fill="black" stroke="black" points="122.72,-430.59 115.28,-423.05 116.39,-433.59 122.72,-430.59"/>
<text text-anchor="middle" x="266.5" y="-527.67" font-family="Times,serif" font-size="14.00">Requests from User</text>
</g>
<!-- Auth -->
<g id="node7" class="node">
<title>Auth</title>
<path fill="darkorange" stroke="darkorange" d="M354,-422.87C354,-422.87 204,-422.87 204,-422.87 198,-422.87 192,-416.87 192,-410.87 192,-410.87 192,-398.87 192,-398.87 192,-392.87 198,-386.87 204,-386.87 204,-386.87 354,-386.87 354,-386.87 360,-386.87 366,-392.87 366,-398.87 366,-398.87 366,-410.87 366,-410.87 366,-416.87 360,-422.87 354,-422.87"/>
<text text-anchor="middle" x="279" y="-401.17" font-family="Times,serif" font-size="14.00"> &#160;&#160;&#160;Authentication Service &#160;&#160;&#160;&#160;</text>
</g>
<!-- ECS&#45;&gt;Auth -->
<g id="edge4" class="edge">
<title>ECS&#45;&gt;Auth</title>
<path fill="none" stroke="black" d="M368.15,-557.15C350.82,-527.74 314.78,-466.58 294.22,-431.7"/>
<polygon fill="black" stroke="black" points="297.2,-429.86 289.11,-423.03 291.17,-433.42 297.2,-429.86"/>
</g>
<!-- Authz -->
<g id="node8" class="node">
<title>Authz</title>
<path fill="darkorange" stroke="darkorange" d="M551.5,-422.87C551.5,-422.87 402.5,-422.87 402.5,-422.87 396.5,-422.87 390.5,-416.87 390.5,-410.87 390.5,-410.87 390.5,-398.87 390.5,-398.87 390.5,-392.87 396.5,-386.87 402.5,-386.87 402.5,-386.87 551.5,-386.87 551.5,-386.87 557.5,-386.87 563.5,-392.87 563.5,-398.87 563.5,-398.87 563.5,-410.87 563.5,-410.87 563.5,-416.87 557.5,-422.87 551.5,-422.87"/>
<text text-anchor="middle" x="477" y="-401.17" font-family="Times,serif" font-size="14.00"> &#160;&#160;&#160;&#160;Authorization Service &#160;&#160;&#160;&#160;</text>
</g>
<!-- ECS&#45;&gt;Authz -->
<g id="edge5" class="edge">
<title>ECS&#45;&gt;Authz</title>
<path fill="none" stroke="black" d="M387.85,-557.15C405.18,-527.74 441.22,-466.58 461.78,-431.7"/>
<polygon fill="black" stroke="black" points="464.83,-433.42 466.89,-423.03 458.8,-429.86 464.83,-433.42"/>
</g>
<!-- Content -->
<g id="node9" class="node">
<title>Content</title>
<path fill="darkorange" stroke="darkorange" d="M702,-422.87C702,-422.87 600,-422.87 600,-422.87 594,-422.87 588,-416.87 588,-410.87 588,-410.87 588,-398.87 588,-398.87 588,-392.87 594,-386.87 600,-386.87 600,-386.87 702,-386.87 702,-386.87 708,-386.87 714,-392.87 714,-398.87 714,-398.87 714,-410.87 714,-410.87 714,-416.87 708,-422.87 702,-422.87"/>
<text text-anchor="middle" x="651" y="-401.17" font-family="Times,serif" font-size="14.00"> &#160;&#160;Content Service &#160;&#160;</text>
</g>
<!-- ECS&#45;&gt;Content -->
<g id="edge6" class="edge">
<title>ECS&#45;&gt;Content</title>
<path fill="none" stroke="black" d="M429.38,-568.52C472.03,-561.95 532.54,-547.47 576,-515.87 605.54,-494.39 627.19,-457.52 639.43,-432.44"/>
<polygon fill="black" stroke="black" points="642.72,-433.67 643.81,-423.13 636.38,-430.69 642.72,-433.67"/>
</g>
<!-- RT_Privates -->
<g id="node12" class="node">
<title>RT_Privates</title>
<ellipse fill="lightskyblue" stroke="lightskyblue" cx="327" cy="-296.87" rx="77.15" ry="26.74"/>
<text text-anchor="middle" x="327" y="-300.67" font-family="Times,serif" font-size="14.00">Private Subnets</text>
<text text-anchor="middle" x="327" y="-285.67" font-family="Times,serif" font-size="14.00"> &#160;Routing Table &#160;</text>
</g>
<!-- FastAPI&#45;&gt;RT_Privates -->
<g id="edge17" class="edge">
<title>FastAPI&#45;&gt;RT_Privates</title>
<path fill="none" stroke="black" d="M136.37,-386.83C149.48,-379.19 165.36,-370.25 180,-362.87 208.86,-348.32 241.71,-333.63 269.02,-321.9"/>
<polygon fill="black" stroke="black" points="270.61,-325.03 278.43,-317.88 267.86,-318.59 270.61,-325.03"/>
</g>
<!-- CloudWatchLogs -->
<g id="node13" class="node">
<title>CloudWatchLogs</title>
<ellipse fill="none" stroke="black" cx="845" cy="-296.87" rx="75.29" ry="18"/>
<text text-anchor="middle" x="845" y="-293.17" font-family="Times,serif" font-size="14.00">CloudWatch Logs</text>
</g>
<!-- FastAPI&#45;&gt;CloudWatchLogs -->
<g id="edge11" class="edge">
<title>FastAPI&#45;&gt;CloudWatchLogs</title>
<path fill="none" stroke="darkmagenta" d="M131.34,-386.68C144.84,-377.78 162.55,-367.77 180,-362.87 187.63,-360.73 742.32,-347.82 750,-345.87 771.66,-340.37 794.05,-329.35 811.65,-319.26"/>
<polygon fill="darkmagenta" stroke="darkmagenta" points="813.56,-322.2 820.39,-314.1 810,-316.17 813.56,-322.2"/>
</g>
<!-- Auth&#45;&gt;RT_Privates -->
<g id="edge18" class="edge">
<title>Auth&#45;&gt;RT_Privates</title>
<path fill="none" stroke="black" d="M286.71,-386.84C293.3,-372.29 302.99,-350.89 311.22,-332.72"/>
<polygon fill="black" stroke="black" points="314.43,-334.12 315.36,-323.57 308.05,-331.23 314.43,-334.12"/>
</g>
<!-- Auth&#45;&gt;CloudWatchLogs -->
<g id="edge12" class="edge">
<title>Auth&#45;&gt;CloudWatchLogs</title>
<path fill="none" stroke="darkmagenta" d="M311.96,-386.83C330.78,-377.98 355.12,-367.97 378,-362.87 418.39,-353.87 709.98,-356.38 750,-345.87 771.61,-340.2 794,-329.17 811.62,-319.12"/>
<polygon fill="darkmagenta" stroke="darkmagenta" points="813.51,-322.07 820.36,-313.98 809.97,-316.03 813.51,-322.07"/>
</g>
<!-- S3 -->
<g id="node14" class="node">
<title>S3</title>
<ellipse fill="none" stroke="black" cx="993" cy="-296.87" rx="49.29" ry="18"/>
<text text-anchor="middle" x="993" y="-293.17" font-family="Times,serif" font-size="14.00">Output file</text>
</g>
<!-- Auth&#45;&gt;S3 -->
<g id="edge8" class="edge">
<title>Auth&#45;&gt;S3</title>
<path fill="none" stroke="darkgreen" d="M311.93,-386.7C330.74,-377.8 355.08,-367.79 378,-362.87 438.21,-349.93 874.12,-366.91 932,-345.87 946.33,-340.66 959.91,-330.68 970.6,-321.16"/>
<polygon fill="darkgreen" stroke="darkgreen" points="973.28,-323.45 978.18,-314.06 968.49,-318.34 973.28,-323.45"/>
</g>
<!-- Authz&#45;&gt;RT_Privates -->
<g id="edge19" class="edge">
<title>Authz&#45;&gt;RT_Privates</title>
<path fill="none" stroke="black" d="M452.34,-386.69C438.92,-377.31 422.03,-365.48 407,-354.87 394.32,-345.92 380.55,-336.13 368.06,-327.23"/>
<polygon fill="black" stroke="black" points="369.83,-324.18 359.65,-321.23 365.76,-329.88 369.83,-324.18"/>
</g>
<!-- Authz&#45;&gt;CloudWatchLogs -->
<g id="edge13" class="edge">
<title>Authz&#45;&gt;CloudWatchLogs</title>
<path fill="none" stroke="darkmagenta" d="M511.43,-386.68C530.09,-378.13 553.81,-368.45 576,-362.87 614.99,-353.07 625.99,-357.78 666,-353.87 703.32,-350.23 713.97,-356.28 750,-345.87 771.31,-339.71 793.53,-328.77 811.12,-318.89"/>
<polygon fill="darkmagenta" stroke="darkmagenta" points="812.95,-321.87 819.86,-313.85 809.45,-315.81 812.95,-321.87"/>
</g>
<!-- Authz&#45;&gt;S3 -->
<g id="edge9" class="edge">
<title>Authz&#45;&gt;S3</title>
<path fill="none" stroke="darkgreen" d="M509.96,-386.85C528.79,-378 553.13,-367.99 576,-362.87 653.29,-345.57 857.8,-373.56 932,-345.87 946.09,-340.61 959.48,-330.82 970.11,-321.45"/>
<polygon fill="darkgreen" stroke="darkgreen" points="972.71,-323.81 977.66,-314.44 967.95,-318.67 972.71,-323.81"/>
</g>
<!-- Content&#45;&gt;RT_Privates -->
<g id="edge20" class="edge">
<title>Content&#45;&gt;RT_Privates</title>
<path fill="none" stroke="black" d="M623.65,-386.81C609.77,-378.7 592.41,-369.38 576,-362.87 519.74,-340.54 453.3,-323.64 403.2,-312.68"/>
<polygon fill="black" stroke="black" points="403.92,-309.26 393.41,-310.57 402.45,-316.1 403.92,-309.26"/>
</g>
<!-- Content&#45;&gt;CloudWatchLogs -->
<g id="edge14" class="edge">
<title>Content&#45;&gt;CloudWatchLogs</title>
<path fill="none" stroke="darkmagenta" d="M682.17,-386.84C716.23,-368.23 770.81,-338.41 807.27,-318.49"/>
<polygon fill="darkmagenta" stroke="darkmagenta" points="809.03,-321.51 816.12,-313.65 805.67,-315.37 809.03,-321.51"/>
</g>
<!-- Content&#45;&gt;S3 -->
<g id="edge10" class="edge">
<title>Content&#45;&gt;S3</title>
<path fill="none" stroke="darkgreen" d="M714.16,-399.2C772.89,-392.95 861.65,-378.57 932,-345.87 945.44,-339.62 958.59,-329.89 969.22,-320.81"/>
<polygon fill="darkgreen" stroke="darkgreen" points="971.66,-323.32 976.82,-314.07 967.01,-318.09 971.66,-323.32"/>
</g>
<!-- NATS -->
<g id="node10" class="node">
<title>NATS</title>
<ellipse fill="lightgoldenrodyellow" stroke="lightgoldenrodyellow" cx="327" cy="-186" rx="64.19" ry="18"/>
<text text-anchor="middle" x="327" y="-182.3" font-family="Times,serif" font-size="14.00">NAT Gateways</text>
</g>
<!-- IGW -->
<g id="node11" class="node">
<title>IGW</title>
<ellipse fill="lightcoral" stroke="lightcoral" cx="327" cy="-113" rx="71.49" ry="18"/>
<text text-anchor="middle" x="327" y="-109.3" font-family="Times,serif" font-size="14.00" fill="white">Internet Gateway</text>
</g>
<!-- NATS&#45;&gt;IGW -->
<g id="edge16" class="edge">
<title>NATS&#45;&gt;IGW</title>
<path fill="none" stroke="black" d="M327,-167.81C327,-159.79 327,-150.05 327,-141.07"/>
<polygon fill="black" stroke="black" points="330.5,-141.03 327,-131.03 323.5,-141.03 330.5,-141.03"/>
</g>
<!-- Internet2 -->
<g id="node15" class="node">
<title>Internet2</title>
<text text-anchor="middle" x="327" y="-30.3" font-family="Times,serif" font-size="14.00">Internet</text>
</g>
<!-- IGW&#45;&gt;Internet2 -->
<g id="edge21" class="edge">
<title>IGW&#45;&gt;Internet2</title>
<path fill="none" stroke="black" d="M327,-94.91C327,-85.34 327,-73.18 327,-62.32"/>
<polygon fill="black" stroke="black" points="330.5,-62.04 327,-52.04 323.5,-62.04 330.5,-62.04"/>
</g>
<!-- RT_Privates&#45;&gt;NATS -->
<g id="edge15" class="edge">
<title>RT_Privates&#45;&gt;NATS</title>
<path fill="none" stroke="black" d="M327,-269.79C327,-253.07 327,-231.4 327,-214.43"/>
<polygon fill="black" stroke="black" points="330.5,-214.05 327,-204.05 323.5,-214.05 330.5,-214.05"/>
<text text-anchor="middle" x="390.5" y="-240.8" font-family="Times,serif" font-size="14.00">Provide Internet access</text>
<text text-anchor="middle" x="390.5" y="-225.8" font-family="Times,serif" font-size="14.00">for Private Subnets</text>
</g>
</g>
</svg>
